<?xml version="1.0" encoding="UTF-8" standalone="no"?>
<svg
   xmlns:dc="http://purl.org/dc/elements/1.1/"
   xmlns:cc="http://creativecommons.org/ns#"
   xmlns:rdf="http://www.w3.org/1999/02/22-rdf-syntax-ns#"
   xmlns:svg="http://www.w3.org/2000/svg"
   xmlns="http://www.w3.org/2000/svg"
   xmlns:sodipodi="http://sodipodi.sourceforge.net/DTD/sodipodi-0.dtd"
   xmlns:inkscape="http://www.inkscape.org/namespaces/inkscape"
   sodipodi:docname="ThirtySecondNote.svg"
   height="108.86105"
   width="53.758614"
   inkscape:version="1.0beta2 (2b71d25, 2019-12-03)"
   version="1.1"
   id="svg2">
  <metadata
     id="metadata8">
    <rdf:RDF>
      <cc:Work
         rdf:about="">
        <dc:format>image/svg+xml</dc:format>
        <dc:type
           rdf:resource="http://purl.org/dc/dcmitype/StillImage" />
        <dc:title></dc:title>
      </cc:Work>
    </rdf:RDF>
  </metadata>
  <defs
     id="defs6" />
  <sodipodi:namedview
     fit-margin-bottom="0"
     fit-margin-right="0"
     fit-margin-left="0"
     fit-margin-top="0"
     inkscape:document-rotation="0"
     inkscape:snap-bbox-edge-midpoints="true"
     inkscape:bbox-paths="true"
     inkscape:snap-bbox="true"
     inkscape:current-layer="svg2"
     inkscape:window-maximized="1"
     inkscape:window-y="23"
     inkscape:window-x="0"
     inkscape:cy="65.83407"
     inkscape:cx="31.729699"
     inkscape:zoom="2"
     inkscape:guide-bbox="true"
     showguides="true"
     showgrid="false"
     id="namedview4"
     inkscape:window-height="892"
     inkscape:window-width="1680"
     inkscape:pageshadow="2"
     inkscape:pageopacity="0"
     guidetolerance="10"
     gridtolerance="10"
     objecttolerance="10"
     borderopacity="1"
     bordercolor="#666666"
     pagecolor="#ffffff" />
  <path
     id="path2991"
     d="m 25.578019,0 0.1875,87.562498 c -1.8746,-2.54288 -9.75858,-4.19761 -16.5625,0.15625 -6.80392,4.35387 -10.88851,11.63438 -8.53124997,15.937502 2.69074997,4.91189 11.63560997,7.54103 18.74999997,2.4375 5.14477,-3.69062 7.6185,-8.432812 8.40625,-9.843752 V 51.59375 c 18.89239,12.470268 28.18114,14.866288 18.5625,41.187498 9.44248,-12.19554 8.76194,-20.06513 3.8125,-28.21875 0.73897,-5.485187 0.77685,-9.688376 0.28125,-13.062498 5.40935,-31.292857 -13.66775,-28.604717 -22.65625,-48.28125 v -3.0625 z m 2.25,18.21875 c 18.97575,10.239083 20.72077,20.273317 21.21875,28 C 45.369879,37.671878 36.541419,35.066914 27.828019,20.875 Z m 0,15.375 c 19.23222,16.367779 19.15773,12.504158 21.46875,29.531248 -5.25073,-7.9293 -14.17979,-16.387047 -21.46875,-29.531248 z"
     style="fill:#000000;stroke:none"
     inkscape:connector-curvature="0" />
</svg>
